<svg width="25" height="25" viewBox="0 0 25 25" fill="none" xmlns="http://www.w3.org/2000/svg">
<rect width="25" height="25" fill="#353B40"/>
<path d="M21.7334 10.8643L22.8174 11.9482C23.2764 12.4072 23.2764 13.1494 22.8174 13.6035L13.3301 23.0957C12.8711 23.5547 12.1289 23.5547 11.6748 23.0957L2.18262 13.6035C1.72363 13.1445 1.72363 12.4023 2.18262 11.9482L3.2666 10.8643C3.73047 10.4004 4.4873 10.4102 4.94141 10.8838L10.5469 16.7676V2.73438C10.5469 2.08496 11.0693 1.5625 11.7188 1.5625H13.2813C13.9307 1.5625 14.4531 2.08496 14.4531 2.73438V16.7676L20.0586 10.8838C20.5127 10.4053 21.2695 10.3955 21.7334 10.8643Z" fill="white" fill-opacity="0.8"/>
</svg>
