<svg width="580" height="450" viewBox="0 0 580 450" fill="none" xmlns="http://www.w3.org/2000/svg">
<g opacity="0.3">
<path opacity="0.3" d="M459.342 402.02C406.967 394.208 371.549 426.778 334.611 443.822C291.126 463.886 254.966 430.28 221.253 411.298C160.657 377.181 117.086 445.386 50.0256 409.167C-14.1585 374.504 -12.7996 269.24 44.5769 230.086C101.95 190.935 105.34 173.912 106.905 131.65C108.471 89.3909 112.468 10.6827 181.378 29.1555C240.607 45.0354 278.628 41.0723 312.187 22.0521C345.743 3.03009 461.723 -40.5536 470.997 94.8557C475.427 159.56 482.212 184.278 524.782 216.337C567.35 248.4 588.471 300.802 576.832 346.873C565.808 390.501 529.297 412.449 459.342 402.02Z" fill="#FFBE55"/>
</g>
<path d="M147.263 271.455C147.263 271.455 148.492 272.86 148.896 274.154C149.217 275.174 150.337 276.548 150.863 277.329C151.39 278.11 153.337 281.748 153.603 282.75C153.713 283.164 153.492 285.969 153.795 286.777C154.098 287.585 154.89 289.14 154.257 289.406C153.624 289.673 152.572 288.498 152.572 288.498C152.572 288.498 152.808 289.253 152.319 289.676C151.364 290.51 150.681 290.143 150.681 290.143C150.681 290.143 150.471 291.089 149.997 291.32C148.949 291.837 148.294 291.463 148.294 291.463C148.294 291.463 147.915 292.05 147.148 292.218C146.169 292.431 145.54 291.57 145.54 291.57C145.54 291.57 144.367 292.15 143.859 291.578C143.355 291.008 143.257 290.291 142.975 289.731C142.691 289.167 141.592 283.759 142.319 279.493C143.05 275.23 140.188 271.933 140.188 271.933L147.263 271.455Z" fill="#EEA886"/>
<path d="M155.986 302.641L139.745 302.152C138.096 302.107 136.789 300.538 136.834 298.66L137.101 286.999C137.144 285.121 138.523 283.634 140.173 283.685L156.41 284.17C158.058 284.216 159.366 285.785 159.322 287.666L159.053 299.324C159.01 301.198 157.633 302.687 155.986 302.641ZM140.117 285.969C139.574 285.951 139.122 286.444 139.108 287.064L138.838 298.722C138.826 299.339 139.255 299.855 139.798 299.87L156.037 300.359C156.58 300.373 157.032 299.881 157.048 299.264L157.316 287.606C157.329 286.986 156.898 286.469 156.356 286.455L140.117 285.969Z" fill="#0B4870"/>
<path d="M169.722 298.048L126.272 296.758L125.122 346.461L168.572 347.751L169.722 298.048Z" fill="#0B4870"/>
<path d="M169.722 298.049L126.269 296.759L125.602 325.571L169.055 326.861L169.722 298.049Z" fill="#0B4870"/>
<path d="M152.63 287.945C152.63 287.945 151.653 283.088 150.307 282.325C148.961 281.563 149.227 283.342 149.227 283.342C149.227 283.342 148.991 281.581 147.72 281.641C146.448 281.698 146.86 283.761 146.86 283.761C146.86 283.761 146.36 282.479 145.145 283.059C143.924 283.639 144.613 285.261 144.613 285.261C144.613 285.261 143.017 283.893 142.582 285.681C141.852 288.699 143.858 291.573 143.858 291.573C143.858 291.573 144.401 292.215 145.539 291.565C145.539 291.565 146.775 293.244 148.292 291.458C148.292 291.458 150.422 292.178 150.68 290.138C150.678 290.14 152.985 290.761 152.63 287.945Z" fill="#DB9C7C"/>
<path d="M137.052 283.685L132.063 317.923L129.64 314.235C129.64 314.233 136.726 285.086 137.052 283.685Z" fill="#122333"/>
<path d="M117.027 413.515C115.668 411.313 116.89 403.062 120.182 399.613C123.474 396.159 126.493 399.442 126.493 399.442C126.493 399.442 128.406 404.713 129.914 406.167C131.419 407.622 138.103 417.522 140.411 418.02C142.719 418.518 147.318 418.862 147.506 419.976C147.692 421.091 147.805 426.505 141.248 426.68C134.692 426.859 132.966 426.718 131.371 424.894C129.773 423.069 123.515 417.823 121.793 417.869L117.027 413.515Z" fill="#DB9C7C"/>
<path opacity="0.9" d="M140.408 418.02C140.408 418.02 133.132 419.15 130.041 416.435C126.951 413.716 123.073 406.959 116.903 406.822C116.903 406.822 114.692 410.045 118.312 417.407C118.312 417.407 120.317 425.846 120.264 427.248L121.985 427.202L121.789 417.872C121.789 417.872 127.967 420.973 132.24 426.364C132.24 426.364 144.81 428.642 147.179 424.188C147.179 424.188 148.485 421.96 147.908 419.783C147.33 417.601 140.408 418.02 140.408 418.02Z" fill="#FFBE55"/>
<path d="M112.681 263.071C112.681 263.071 104.99 273.702 114.63 292.669C114.63 292.669 115.453 302.362 115.618 306.002C115.783 309.64 117.844 323.247 116.735 329.854C115.63 336.461 112.014 346.376 113.365 355.852C114.716 365.327 120.886 392.688 119.699 399.7L126.54 399.514C126.54 399.514 128.977 341.566 129.735 339.521C130.493 337.475 133.509 333.042 133.146 324.048C132.78 315.049 140.883 278.189 140.849 267.972C140.814 257.751 112.681 263.071 112.681 263.071Z" fill="#DB9C7C"/>
<path d="M112.394 413.437C111.085 411.195 112.478 402.982 115.838 399.621C119.199 396.26 122.149 399.621 122.149 399.621C122.149 399.621 123.955 404.941 125.429 406.434C126.905 407.93 133.383 418.01 135.678 418.568C137.976 419.128 142.566 419.597 142.729 420.717C142.892 421.838 142.894 427.25 136.335 427.25C129.776 427.25 128.053 427.064 126.495 425.197C124.937 423.33 118.788 417.917 117.066 417.917L112.394 413.437Z" fill="#EEA886"/>
<path opacity="0.9" d="M135.679 418.566C135.679 418.566 128.382 419.501 125.35 416.7C122.318 413.899 118.579 407.042 112.414 406.735C112.414 406.735 110.137 409.899 113.602 417.362C113.602 417.362 115.432 425.847 115.347 427.248H117.068V417.915C117.068 417.915 123.18 421.179 127.34 426.69C127.34 426.69 139.86 429.303 142.321 424.918C142.321 424.918 143.674 422.723 143.142 420.528C142.606 418.335 135.679 418.566 135.679 418.566Z" fill="#FFBE55"/>
<path d="M111.181 262.91C111.181 262.91 103.272 273.33 112.514 292.553C112.514 292.553 113.136 302.264 113.224 305.906C113.312 309.548 115.09 323.207 113.848 329.783C112.604 336.359 108.782 346.172 109.939 355.681C111.094 365.193 116.692 393.36 115.359 400.343L122.202 399.691C122.202 399.691 125.844 341.822 126.642 339.799C127.442 337.779 130.553 333.427 130.375 324.421C130.198 315.414 141.303 280.917 141.482 270.701C141.662 260.485 111.181 262.91 111.181 262.91Z" fill="#EEA886"/>
<path d="M141.478 273.435C141.478 273.435 132.675 331.101 134.628 339.396C134.628 339.396 119.761 337.845 108.027 332.654C108.027 332.654 113.885 310.081 111.906 298.117C109.928 286.152 105.462 279.604 108.406 267.515C111.348 255.427 141.478 273.435 141.478 273.435Z" fill="#0E538C"/>
<path d="M351.165 142.526C351.165 142.526 359.362 136.696 363.552 144.261C366.637 149.832 367.57 171.456 367.57 171.456L368.501 192.372C368.501 192.372 367.201 195.808 359.833 195.58C352.464 195.352 351.165 142.526 351.165 142.526Z" fill="#0E538C"/>
<path opacity="0.9" d="M358.346 397.748C358.346 397.748 353.688 405.627 351.81 407.526C351.81 407.526 344.601 412.562 344.332 415.909C344.157 418.093 347.215 418.294 352.151 418.454C357.088 418.611 360.258 416.651 361.159 413.245C362.063 409.842 363.773 408.32 363.773 408.32V415.443H364.882C364.882 415.443 365.16 408.555 365.231 407.289C365.3 406.025 366.029 401.153 363.681 398.996C361.334 396.836 358.346 397.748 358.346 397.748Z" fill="#FFBE55"/>
<path d="M351.012 407.93C351.012 407.93 355.069 410.303 358.755 407.167C362.441 404.03 363.685 398.994 363.685 398.994L358.35 397.746L351.012 407.93Z" fill="#DBA585"/>
<path opacity="0.9" d="M326.746 391.453C326.746 391.453 325.936 393.623 324.414 395.891C323.297 397.544 319.829 404.359 318.295 404.831C316.765 405.309 311.622 409.269 311.204 412.276C310.786 415.283 310.996 414.414 315.654 414.65C320.311 414.889 323.371 415.203 325.597 411.486C327.822 407.765 331.369 405.074 331.369 405.074V414.778H333.177C333.177 414.778 334.012 404.674 334.499 403.961C334.984 403.248 336.234 395.489 331.925 391.453C327.613 387.415 326.746 391.453 326.746 391.453Z" fill="#FFBE55"/>
<path d="M318.297 404.833C318.297 404.833 322.47 406.023 324.071 404.833C325.668 403.647 331.106 393.183 332.909 392.555C332.909 392.555 331.162 388.524 326.748 391.453C326.747 391.455 319.479 403.091 318.297 404.833Z" fill="#DBA585"/>
<path d="M313.833 276.168C313.833 276.168 312.753 277.345 312.384 278.438C312.086 279.304 311.102 280.454 310.636 281.107C310.17 281.766 308.428 284.831 308.179 285.683C308.08 286.032 308.213 288.446 307.939 289.127C307.665 289.814 306.955 291.126 307.492 291.371C308.029 291.615 308.95 290.634 308.95 290.634C308.95 290.634 308.734 291.276 309.144 291.654C309.945 292.391 310.542 292.095 310.542 292.095C310.542 292.095 310.702 292.907 311.104 293.119C311.992 293.59 312.559 293.287 312.559 293.287C312.559 293.287 312.873 293.803 313.527 293.964C314.362 294.17 314.917 293.447 314.917 293.447C314.917 293.447 315.909 293.975 316.354 293.497C316.8 293.019 316.896 292.413 317.15 291.937C317.402 291.466 318.452 286.855 317.912 283.184C317.372 279.512 319.889 276.761 319.889 276.761L313.833 276.168Z" fill="#DBA585"/>
<path d="M302.369 301.473V291.48C302.369 289.869 303.518 288.56 304.933 288.56H318.855C320.268 288.56 321.419 289.869 321.419 291.48V301.473C321.419 303.085 320.268 304.393 318.855 304.393H304.933C303.518 304.393 302.369 303.085 302.369 301.473ZM304.933 290.518C304.467 290.518 304.09 290.949 304.09 291.48V301.473C304.09 302.004 304.467 302.435 304.933 302.435H318.855C319.319 302.435 319.699 302.004 319.699 301.473V291.48C319.699 290.949 319.319 290.518 318.855 290.518H304.933Z" fill="#0B4870"/>
<path d="M338.009 300.101H285.78V342.71H338.009V300.101Z" fill="#0E538C"/>
<path d="M334.082 186.096C334.082 186.096 336.758 186.141 337.899 195.248C339.04 204.357 336.876 208.163 336.62 211.951C336.364 215.743 332.457 240.222 332.352 241.306C332.247 242.386 331.721 255.414 330.199 258.872C328.676 262.33 317.482 281.923 317.333 282.899C317.183 283.879 311.896 279.489 311.896 279.489C311.896 279.489 320.692 258.527 321.202 256.139C321.711 253.746 325.251 241.534 324.692 237.806C324.131 234.082 326.261 213.518 326.054 211.232C325.848 208.946 328.957 187.488 334.082 186.096Z" fill="#DBA585"/>
<path d="M334.078 186.096C334.078 186.096 336.754 186.141 337.895 195.248C339.036 204.357 338.004 207.636 337.315 211.584C336.665 215.312 334.445 238.12 334.339 239.2C334.234 240.288 331.577 254.033 330.197 258.872C329.147 262.55 319.165 281.804 319.014 282.784C318.863 283.76 311.256 278.283 311.256 278.283C311.256 278.283 321.016 256.604 321.522 254.214C322.033 251.821 323.687 243.547 323.74 239.762C323.803 235.321 326.256 213.518 326.049 211.23C325.843 208.942 326.612 189.21 334.078 186.096Z" fill="#0E538C"/>
<path d="M359.591 246.467C359.591 246.467 365.472 255.176 367.069 265.509C368.662 275.841 366.125 310.513 366.197 315.624C366.264 320.731 370.437 333.436 369.601 343.054C368.766 352.675 366.171 399.76 366.171 399.76L356.46 398.512C356.46 398.512 356.981 349.706 356.46 345.665C355.937 341.631 354.891 326.909 354.682 325.249C354.474 323.588 341.439 279.928 341.439 272.48C341.439 265.031 345.405 234.313 359.591 246.467Z" fill="#0B4870"/>
<path d="M330.036 249.874C330.036 249.874 320.371 291.87 319.225 297.689C318.076 303.508 316.413 308.309 316.413 310.779C316.413 316.51 318.285 325.716 318.285 325.716L324.857 392.219H333.16C333.16 392.219 333.306 353.385 333.828 345.552C334.347 337.711 330.072 325.597 331.116 322.273C332.158 318.948 347.91 280.59 347.91 280.59C347.91 280.59 359.833 237.678 330.036 249.874Z" fill="#0B4870"/>
<path d="M341.929 182.812C341.929 182.812 336.767 185.587 334.977 185.998C333.184 186.405 326.229 196.689 325.011 200.442C323.791 204.199 325.011 209.832 327.519 216.444C330.027 223.057 327.662 225.261 328.811 231.872C329.956 238.482 330.961 252.481 330.745 256.156C330.53 259.827 359.743 260.522 366.41 253.829C366.41 253.829 359.708 242.404 358.847 240.769C357.988 239.136 358.703 230.24 359.493 227.954C360.28 225.67 365.532 206.233 365.532 206.233C365.532 206.233 369.825 191.308 365.947 187.876C362.577 184.896 353.394 183.834 351.745 183.182C350.097 182.524 345.301 182.241 341.929 182.812Z" fill="#F7F7F7"/>
<path d="M340.285 195.913L337.146 191.732L339.872 180.724C339.872 180.722 340.785 186.853 340.285 195.913Z" fill="#CFC3BC"/>
<path d="M339.467 176.033C339.467 176.033 340.5 186.813 340.284 190.32C340.284 190.32 345.645 196.442 351.745 183.178C351.745 183.178 349.177 177.711 351.111 170.263C353.045 162.815 339.467 176.033 339.467 176.033Z" fill="#DBA585"/>
<path d="M340.282 190.319V195.911L346.452 190.662L340.282 190.319Z" fill="#DBA585"/>
<path d="M340.282 195.913L342.841 192.302L351.474 182.505L354.269 185.567L340.282 195.913Z" fill="#CFC3BC"/>
<path d="M352.677 183.443C352.677 183.443 345.432 195.962 345.086 201.472C344.742 206.979 347.778 248.196 350.211 261.443C352.644 274.69 370.227 259.951 370.227 259.951C370.227 259.951 358.411 238.175 362.948 220.742C367.482 203.304 369.131 196.341 369.131 196.341C369.131 196.341 367.57 186.631 362.04 185.266C357.192 184.065 352.677 183.443 352.677 183.443Z" fill="#0E538C"/>
<path d="M324.53 202.112C324.53 202.112 323.226 207.379 328.316 219.019C328.316 219.019 328.234 233.908 328.09 238.559C327.947 243.214 326.981 260.803 326.981 260.803L332.014 264.165C333.029 264.838 334.284 263.9 334.144 262.572C332.716 249.182 328.08 198.395 338.098 184.743L334.077 186.093C334.077 186.093 326.934 192.749 324.53 202.112Z" fill="#0E538C"/>
<path d="M348.467 159.402C348.912 158.116 350.401 157.756 351.26 158.49C352.12 159.223 352.625 161.425 351.26 164.285C349.901 167.142 345.098 169.135 348.467 159.402Z" fill="#DBA585"/>
<path d="M337.145 191.732L333.195 192.975L339.871 180.722L337.145 191.732Z" fill="#D3D3D3"/>
<path d="M342.843 192.302L346.454 197.69L353.867 183.62L351.476 182.505L342.843 192.302Z" fill="#D3D3D3"/>
<path d="M339.681 178.403L339.859 180.567C339.859 180.567 344.12 181.475 349.698 173.724C349.698 173.722 345.745 179.218 339.681 178.403Z" fill="#997761"/>
<path d="M308.91 290.162C308.91 290.162 309.843 286.024 311.013 285.409C312.181 284.792 311.917 286.303 311.917 286.303C311.917 286.303 312.154 284.803 313.242 284.885C314.329 284.971 313.938 286.724 313.938 286.724C313.938 286.724 314.391 285.637 315.423 286.172C316.455 286.695 315.833 288.071 315.833 288.071C315.833 288.071 317.229 286.938 317.564 288.482C318.132 291.087 316.414 293.541 316.414 293.541C316.414 293.541 315.88 294.098 314.918 293.509C314.918 293.509 313.803 294.919 312.537 293.355C312.537 293.355 310.681 293.915 310.5 292.158C310.5 292.158 308.362 292.543 308.91 290.162Z" fill="#EBB18F"/>
<path d="M347.216 235.77L355.42 220.702C355.42 220.702 348.426 230.106 347.697 231.115C346.969 232.124 346.907 232.199 346.907 232.199C346.907 232.199 347.117 235.261 347.216 235.77Z" fill="#2F386C"/>
<path d="M295.645 232.279C295.095 231.73 294.513 231.102 293.784 231.075C292.917 231.038 292.238 231.848 291.507 232.383C290.481 233.131 289.233 233.37 288.161 234.022C286.9 234.788 285.914 236.167 285.59 237.753C285.265 239.339 285.637 241.11 286.622 242.293C287.118 242.888 287.754 243.34 288.148 244.024C288.501 244.634 288.632 245.378 288.954 246.013C289.275 246.648 289.929 247.183 290.53 246.926C290.895 246.772 291.127 246.384 291.379 246.046C292.385 244.703 293.957 244.068 295.497 243.836C297.036 243.605 298.598 243.716 300.143 243.57C300.943 243.492 301.852 243.252 302.219 242.441C302.619 241.55 302.14 240.492 301.669 239.64C300.462 237.445 302.046 236.585 300.837 234.394C300.424 234.397 297.288 233.235 296.871 233.115C296.411 232.982 296.001 232.626 295.645 232.279Z" fill="#F2B793"/>
<path d="M285.617 237.63C286.073 236.461 286.698 235.698 287.218 235.035C287.757 234.348 288.375 234.078 289.095 233.652C289.51 233.41 289.964 233.211 290.43 233.246C290.984 233.287 291.305 233.362 291.768 233.716C292.228 234.072 292.919 234.43 293.473 234.468C294.029 234.51 294.904 234.203 294.936 233.57C294.956 233.174 294.294 232.797 294.066 232.497C293.122 231.246 291.739 230.295 290.395 230.295C289.794 230.295 288.976 230.702 288.238 230.95C287.725 231.122 287.14 231.249 286.629 231.425C285.276 231.877 283.887 232.501 282.77 233.477C282.026 234.125 280.199 236.614 281.44 237.579C282.637 238.51 285.069 239.033 285.617 237.63Z" fill="#F4A086"/>
<path d="M296.011 243.775C294.787 245.898 293.451 246.612 291.282 247.214C291 247.292 290.662 247.342 290.447 247.114C290.348 247.006 290.269 246.829 290.201 246.694C290.144 246.59 290.109 246.477 290.111 246.358C290.114 246.241 290.192 246.074 290.273 245.999C290.394 245.886 290.574 245.891 290.664 245.732C290.741 245.605 290.758 245.475 290.801 245.322C290.894 245.004 291.031 244.72 291.301 244.548C291.633 244.346 292.007 244.587 292.281 244.121C292.382 243.946 292.534 243.691 292.707 243.616C293.237 243.377 293.479 243.747 293.798 243.492C293.944 243.375 294.032 243.061 294.212 242.957C294.407 242.846 294.51 242.818 294.725 242.793C295.226 242.738 296.181 243.015 296.011 243.775Z" fill="#F4A086"/>
<path d="M351.163 205.841C353.021 201.14 352.104 194.186 357.628 190.623C361.807 187.924 362.671 184.364 365.945 187.871C369.218 191.382 369.873 199.646 369.07 204.286C368.15 209.585 363.806 226.592 361.213 230.59C358.582 234.65 357.203 236.998 352.69 239.033C349.049 240.675 343.625 240.825 339.33 241.317C337.024 241.584 334.708 241.816 332.393 242.024C330.293 242.21 314.718 243.111 312.413 243.445C311.973 243.509 305.002 243.284 304.586 243.127C303.979 242.899 302.566 242.967 302.22 242.44C301.261 240.982 301.107 239.77 301.107 239.77L300.54 232.501C300.78 232.429 311.811 231.734 312.181 231.727C313.353 231.698 318.981 231.548 327.707 230.287C328.925 230.109 339.721 228.694 340.808 228.235C341.702 227.857 344.17 227.023 344.447 225.915C344.447 225.915 346.247 223.99 347.29 220.702C348.493 216.905 349.699 209.554 351.163 205.841Z" fill="#0E538C"/>
<path d="M199.657 408.266C199.657 408.266 197.763 412.296 196.523 413.889C195.287 415.489 187.159 423.782 187.133 428.532C187.106 433.678 196.212 429.501 201.653 426.622C204.5 425.114 205.026 423.682 206.348 420.77C207.669 417.854 209 418.347 209.249 415.998C209.497 413.65 207.97 408.266 207.97 408.266H199.657V408.266Z" fill="#0B4870"/>
<path d="M247.42 407.801C247.42 407.801 251.285 412.715 255.208 413.745C259.135 414.775 265.415 419.34 265.447 422.159C265.476 424.982 250.614 423.584 246.122 420.741C239.42 416.497 238.739 417.78 237.994 415.656C237.252 413.536 238.888 407.863 238.838 407.191C238.782 406.354 247.42 407.801 247.42 407.801Z" fill="#0B4870"/>
<path d="M246.983 405.45C246.983 405.45 247.496 407.753 247.419 407.802C247.342 407.848 238.573 409.039 238.839 407.193C239.055 405.693 239.36 404.063 239.36 404.063L246.983 405.45Z" fill="#807F7D"/>
<path d="M207.858 406.714C207.858 406.714 208.225 408.913 208.156 408.962C208.084 409.015 199.264 410.809 199.312 408.988C199.35 407.537 200.126 405.851 200.126 405.851L207.858 406.714Z" fill="#807F7D"/>
<path d="M239.009 267.618C239.009 267.618 242.198 302.877 243.858 314.951C245.794 329.067 246.452 340.728 246.992 348.03C247.672 357.217 247.803 402.418 248.283 405.104C248.757 407.792 237.717 405.848 237.717 405.848C237.717 405.848 232.287 346.79 230.26 337.004C228.376 327.892 221.372 288.665 219.653 291.152C217.932 293.643 215.799 336.933 214.521 344.116C213.247 351.304 209.371 407.562 209.371 407.562C209.371 407.562 200.586 409.554 198.247 407.301C198.247 407.301 197.185 358.82 197.996 345.344C198.307 340.21 192.712 283.781 199.885 261.065C203.675 249.063 239.009 267.618 239.009 267.618Z" fill="#0E538C"/>
<path d="M210.388 259.804C210.388 259.804 212.516 256.14 214.766 255.669C217.021 255.199 183.728 236.873 183.817 230.327C183.885 225.017 195.474 215.224 195.474 215.224C195.474 215.224 195.471 215.209 195.474 215.224C195.478 215.231 195.474 215.131 195.474 215.135C195.474 215.142 195.474 215.127 195.474 215.135C195.728 216.186 199.513 231.87 199.632 238.859C199.76 246.112 199.252 271.068 199.252 271.068L207.785 273.669L235.042 273.958L241.264 271.068C241.264 271.068 240.583 263.046 240.332 257.408C240.173 253.826 239.564 247.411 239.721 241.165C239.721 241.165 239.62 234.58 240.194 231.743C240.255 219.227 240.921 206.832 240.921 206.832C241.29 201.156 241.548 195.848 241.694 190.899C240.49 190.177 239.048 189.328 237.886 188.704C234.309 186.763 229.319 184.146 226.117 182.471C224.242 181.495 222.409 180.778 222.409 180.778C222.409 180.778 209.615 179.38 208.575 179.455C208.248 179.481 206.651 180.11 204.551 181.023C200.015 182.982 191.271 186.975 189.875 188.115C187.832 189.775 174.46 230.06 174.266 232.83C173.915 237.819 210.388 259.804 210.388 259.804Z" fill="#F7F7F7"/>
<path d="M240.439 268.421C240.439 268.421 221.715 270.234 205.319 268.421V274.546C205.319 274.546 229.739 277.201 241.261 273.376L240.439 268.421Z" fill="#0E538C"/>
<path d="M224.47 181.666C224.47 181.666 227.515 189.813 229.801 208.02C230.679 215.012 232.307 226.786 233.49 238.804C234.422 248.275 236.549 257.999 237.227 265.246C237.929 272.759 240.038 294.89 240.038 294.89L245.158 291.211C245.892 290.441 246.916 289.443 246.618 288.361C245.211 283.183 242.512 266.069 240.922 251.151C240.922 251.14 240.918 251.129 240.918 251.118C240.842 250.397 240.769 249.686 240.696 248.98C240.692 248.943 240.69 248.905 240.685 248.867C240.384 245.883 240.136 243.026 239.958 240.406C239.821 238.402 239.943 236.439 240.187 234.521C240.898 221.128 241.254 207.016 241.254 207.016C241.631 201.232 241.845 195.833 241.99 190.804C241.991 190.808 225.926 182.161 224.47 181.666Z" fill="#0B4870"/>
<path d="M187.639 228.476C185.415 234.018 208.016 243.904 207.506 245.269C206.282 248.548 201.295 255.233 201.295 255.233C201.295 255.233 171.543 238.472 171.878 234.677C172.119 231.91 186.058 190.093 188.099 188.425C189.279 187.464 198.016 183.935 202.304 182.006C203.09 181.654 205.764 180.514 206.466 180.207C207.376 181.362 213.646 189.237 215.86 219.003C216.232 224.021 215.054 234.64 214.267 243.311C213.429 252.562 212.498 259.782 211.817 267.52C210.476 282.76 209.537 294.89 209.537 294.89L196.213 288.134C194.059 286.907 190.328 283.7 191.141 281.116C194.221 271.294 198.843 252.681 198.846 244.063C198.846 244.063 196.67 220.278 195.49 215.642C195.489 215.644 190.122 222.276 187.639 228.476Z" fill="#0B4870"/>
<path d="M209.755 181.005C209.755 181.005 209.667 176.002 207.978 165.888C207.525 163.177 221.786 173.012 221.786 173.012C221.786 173.012 221.741 173.962 221.712 175.243C221.696 175.92 221.687 176.69 221.691 177.456C221.693 177.73 221.696 177.998 221.701 178.265C221.714 178.982 221.743 179.666 221.797 180.25C221.85 180.852 222.164 181.907 222.271 182.199C222.861 183.746 214.562 184.917 209.755 181.005Z" fill="#DBA686"/>
<path opacity="0.9" d="M218.658 186.244L221.022 189.86C221.022 189.86 219.637 191.97 217.177 190.413L218.658 186.244Z" fill="#FFBE55"/>
<path opacity="0.9" d="M220.386 190.005C220.386 190.005 229.352 229.31 227.503 259.906L224.487 265.956L221.663 259.615C221.663 259.615 219.522 204.89 217.066 189.908L220.386 190.005Z" fill="#FFBE55"/>
<path d="M221.19 182.873L218.66 186.245C218.66 186.245 214.598 185.347 213.405 182.935C212.211 180.517 221.19 182.873 221.19 182.873Z" fill="#DBA686"/>
<path d="M221.769 179.922C221.769 179.922 221.474 182.491 218.658 186.244L221.733 190.952L223.398 181.19L221.769 179.922Z" fill="#D3D3D3"/>
<path d="M209.485 177.061C209.485 177.061 214.549 184.396 218.66 186.245L216.75 191.622L208.022 179.609L209.485 177.061Z" fill="#D3D3D3"/>
<path d="M284.305 240.335C284.305 240.335 261.264 236.66 256.15 235.227C253.784 234.569 250.674 230.852 247.712 226.482C246.738 225.042 245.78 223.535 244.871 222.037C244.869 222.037 244.869 222.03 244.869 222.03C241.24 216.063 238.395 210.345 238.395 210.345C238.395 210.345 227.666 196.028 236.276 189.646C236.276 189.646 239.967 189.553 241.99 190.808C244.071 192.091 248.51 202.643 249.262 204.511C250.017 206.378 258.171 223.727 258.714 224.119C259.26 224.508 267.398 226.52 271.026 227.383C276.281 228.631 286.151 230.965 286.151 230.965L284.305 240.335Z" fill="#0B4870"/>
<path d="M212.006 260.252C212.006 260.252 210.917 260.202 210.45 259.916C210.45 259.916 209.636 259.321 209.035 258.94C208.843 258.819 208.673 258.719 208.559 258.666C208.078 258.452 206.966 258.135 205.939 257.245C204.915 256.358 201.572 252.796 201.572 252.796L203.732 249.015L204.727 245.269C204.727 245.269 212.521 246.149 213.562 246.855C213.662 246.926 213.761 246.997 213.848 247.072C214.679 247.764 215.04 248.68 215.437 249.096C215.585 249.253 216.939 250.906 216.867 251.575C216.761 252.51 216.359 253.104 215.849 253.389C215.849 253.389 215.575 255.199 214.751 256.013C214.751 256.013 214.543 257.692 213.268 258.372C213.269 258.374 212.892 260.053 212.006 260.252Z" fill="#DCA787"/>
<path d="M201.295 255.234C201.295 255.234 205.63 251.181 207.978 245.269L194.678 236.976L189.743 248.418L201.295 255.234Z" fill="#0B4870"/>
<path d="M229.298 148.114C229.298 148.114 232.43 154.732 230.875 155.757C229.593 156.606 232.378 163.098 232.744 164.158C233.109 165.22 230.42 165.99 229.848 166.674C229.277 167.355 227.585 175.755 225.369 176.004C223.156 176.261 213.176 172.309 210.458 169.09C207.744 165.875 205.515 151.345 207.327 145.22C209.141 139.091 223.766 136.56 229.298 148.114Z" fill="#DBA585"/>
<path d="M229.92 149.549C229.92 149.549 230.799 145.874 230.799 138.714C230.799 135.488 210.79 141.106 209.582 141.462C208.373 141.818 201.525 142.353 204.982 156.048C207.953 167.805 208.368 168.297 208.368 168.297C208.368 168.297 210.585 161.491 211.841 160.45C213.804 158.827 218.102 159.216 218.102 159.216C218.102 159.216 216.053 153.021 219.258 152.146C222.457 151.272 226.679 148.177 229.92 149.549Z" fill="#0B4870"/>
<path d="M215.313 157.52C215.029 156.668 214.114 153.015 211.364 155.161C208.611 157.306 213.077 164.191 213.556 164.28C214.038 164.366 217.691 164.669 215.313 157.52Z" fill="#DBA585"/>
<path d="M221.693 177.454C221.695 177.728 221.698 177.996 221.703 178.262C213.544 175.144 211.964 170.455 211.964 170.455C214.509 172.504 221.714 175.241 221.714 175.241C221.698 175.919 221.689 176.688 221.693 177.454Z" fill="#997761"/>
<path d="M126.051 181.357C126.051 181.357 131.368 184.977 132.652 190.659C133.939 196.336 132.519 203.481 132.368 205.99C132.215 208.499 133.543 233.398 133.934 234.183C134.319 234.967 139.642 246.888 141.907 254.905C144.166 262.925 149.873 274.247 149.873 274.247L141.378 278.412C141.378 278.412 124.732 248.545 123.658 240.23C122.509 231.353 117.686 205.019 117.686 205.019C117.686 205.019 113.513 182.476 126.051 181.357Z" fill="#D3D3D3"/>
<path d="M133.445 139.422C137.556 139.326 146.604 141.97 147.701 154.405C147.701 154.405 147.29 157.733 146.514 160.335C145.738 162.937 147.612 170.741 147.064 171.104C146.514 171.467 144.275 171.885 144.275 171.885C144.275 171.885 141.671 180.26 139.067 180.103C136.463 179.95 126.653 177.313 122.269 166.646C117.878 155.979 116.846 139.804 133.445 139.422Z" fill="#EEA886"/>
<path d="M343.511 141.465C339.677 141.372 331.238 143.842 330.216 155.438C330.216 155.438 330.599 158.542 331.323 160.968C332.047 163.392 330.301 170.668 330.812 171.011C331.323 171.351 333.413 171.738 333.413 171.738C333.413 171.738 335.842 179.549 338.27 179.403C340.698 179.257 349.847 176.797 353.937 166.851C358.031 156.907 358.995 141.821 343.511 141.465Z" fill="#DEA787"/>
<path d="M147.701 154.406C147.701 154.406 140.908 159.367 134.267 160.197C127.628 161.031 123.209 168.669 123.209 168.669C123.209 168.669 113.495 153.955 121.902 142.582C130.307 131.201 149.498 140.011 147.701 154.406Z" fill="#0E538C"/>
<path d="M126.323 146.938C123.48 151.493 118.728 153.204 115.714 150.759C112.694 148.318 112.558 142.645 115.401 138.094C118.249 133.543 122.999 131.828 126.015 134.27C129.028 136.713 129.167 142.388 126.323 146.938Z" fill="#0E538C"/>
<path d="M124.401 180.103C125.039 176.251 124.401 170.684 124.401 170.684C124.401 170.684 136.768 177.19 134.625 178.955C134.069 179.415 133.681 180.298 133.419 181.356C132.662 184.358 132.875 188.759 132.875 188.759L136.978 194.322C140.598 199.98 124.092 181.977 124.401 180.103Z" fill="#EEA886"/>
<path d="M131.527 159.763C131.527 158.302 130.155 156.072 128.007 157.992C125.858 159.92 128.507 166.94 130.244 166.316C131.98 165.694 131.527 161.271 131.527 159.763Z" fill="#EEA886"/>
<path d="M134.623 178.957C134.067 179.417 133.679 180.3 133.417 181.358C128.62 178.087 126.261 173.176 126.189 173.023C128.806 176.696 134.623 178.957 134.623 178.957Z" fill="#A77860"/>
<path opacity="0.9" d="M323.228 136.279H290.285C285.3 136.279 281.221 131.636 281.221 125.959V108.76C281.221 103.083 285.3 98.436 290.285 98.436H323.228C328.211 98.436 332.293 103.083 332.293 108.76V125.959C332.293 131.636 328.211 136.279 323.228 136.279Z" fill="#FFBE55"/>
<path d="M322.65 112.391H290.922C290.246 112.391 289.698 111.767 289.698 110.993C289.698 110.227 290.246 109.599 290.922 109.599H322.65C323.326 109.599 323.876 110.227 323.876 110.993C323.874 111.767 323.326 112.391 322.65 112.391Z" fill="white"/>
<path d="M322.65 119.23H290.922C290.246 119.23 289.698 118.606 289.698 117.832C289.698 117.062 290.246 116.438 290.922 116.438H322.65C323.326 116.438 323.876 117.062 323.876 117.832C323.874 118.606 323.326 119.23 322.65 119.23Z" fill="white"/>
<path d="M322.65 126.068H290.922C290.246 126.068 289.698 125.444 289.698 124.674C289.698 123.901 290.246 123.28 290.922 123.28H322.65C323.326 123.28 323.876 123.901 323.876 124.674C323.874 125.444 323.326 126.068 322.65 126.068Z" fill="white"/>
<path opacity="0.9" d="M307.932 152.88L293.828 135.263H305.931L307.932 152.88Z" fill="#FFBE55"/>
<path opacity="0.9" d="M222.365 111.073H255.307C260.293 111.073 264.373 106.429 264.373 100.749V83.5495C264.373 77.8766 260.293 73.2292 255.307 73.2292H222.365C217.381 73.2292 213.299 77.8766 213.299 83.5495V100.749C213.297 106.429 217.379 111.073 222.365 111.073Z" fill="#FFBE55"/>
<path d="M222.936 87.1848H254.663C255.341 87.1848 255.888 86.5608 255.888 85.7871C255.888 85.0207 255.341 84.3894 254.663 84.3894H222.936C222.26 84.3894 221.711 85.0207 221.711 85.7871C221.711 86.5608 222.26 87.1848 222.936 87.1848Z" fill="white"/>
<path d="M222.936 94.0232H254.663C255.341 94.0232 255.888 93.3955 255.888 92.6255C255.888 91.8555 255.341 91.2315 254.663 91.2315H222.936C222.26 91.2315 221.711 91.8555 221.711 92.6255C221.711 93.3955 222.26 94.0232 222.936 94.0232Z" fill="white"/>
<path d="M222.936 100.862H254.663C255.341 100.862 255.888 100.234 255.888 99.468C255.888 98.6944 255.341 98.0703 254.663 98.0703H222.936C222.26 98.0703 221.711 98.6944 221.711 99.468C221.711 100.234 222.26 100.862 222.936 100.862Z" fill="white"/>
<path opacity="0.9" d="M237.657 127.672L251.758 110.054H239.659L237.657 127.672Z" fill="#FFBE55"/>
<path d="M151.384 235.008C151.384 235.008 152.291 230.286 152.104 229.195C151.92 228.108 153.246 227.334 153.413 230.014C153.581 232.698 153.662 234.404 153.662 234.404L151.384 235.008Z" fill="#EEA886"/>
<path opacity="0.9" d="M162.435 245.721H153.784L152.433 223.907H163.654L162.435 245.721Z" fill="#FFBE55"/>
<path d="M151.038 236.124C151.038 236.124 150.968 234.452 153.825 233.058C157.62 231.212 162.663 229.387 163.493 229.958C164.685 230.777 164.019 231.808 161.633 232.582C159.25 233.356 158.461 233.602 158.461 233.602C158.461 233.602 163.084 233.317 164.094 233.994C165.104 234.667 165.108 236.118 164.347 236.321C163.583 236.523 161.798 236.587 161.798 236.587C161.798 236.587 163.748 236.759 163.91 237.664C164.03 238.326 164.068 239.278 162.206 239.585C162.206 239.585 163.405 241.223 161.488 242.154C159.572 243.081 156.137 243.847 154.415 244.09C150.839 244.588 144.094 243.26 144.094 243.26L146.351 237.525C146.351 237.525 148.267 238.173 149.562 237.592C151.24 236.846 151.038 236.124 151.038 236.124Z" fill="#EEA886"/>
<path d="M125.129 180.109C125.129 180.109 132.44 188.017 135.182 191.551C137.923 195.089 146.879 207.888 147.702 211.736C148.525 215.584 145.264 221.144 143.041 223.806C141 226.251 142.674 231.92 142.403 235.146C142.129 238.372 141.109 270.738 140.102 273.966C139.097 277.192 113.561 280.456 104.697 269.528C104.697 269.528 114.254 246.072 116.996 242.428C119.738 238.784 114.895 215.478 113.25 209.962C111.604 204.452 114.713 179.901 125.129 180.109Z" fill="#F7F7F7"/>
<path d="M125.799 184.755C123.956 184.074 118.55 184.89 117.632 191.205C116.72 197.516 116.353 204.523 115.502 207.919C114.65 211.318 110.598 230.491 112.425 231.739C114.252 232.988 117.993 234.33 122.291 236.9C126.406 239.363 146.416 248.928 146.416 248.928L147.973 236.985C147.973 236.985 144.137 235.945 140.663 234.002C137.19 232.061 130.062 226.857 123.667 222.348C123.667 222.348 126.408 209.792 127.26 207.159C128.111 204.523 134.084 187.805 125.799 184.755Z" fill="#D3D3D3"/>
<path d="M164.023 222.607H152.06V225.209H164.023V222.607Z" fill="#0B4870"/>
<path d="M399.809 403.346C399.809 403.346 397.187 405.474 395.735 406.967C394.283 408.456 392.309 410.081 391.099 413.888C389.875 417.739 387.455 423.471 390.729 423.702C394.006 423.927 403.379 418.146 403.867 414.732C404.352 411.349 408.2 411.749 408.701 409.344C409.201 406.936 408.533 403.978 408.533 403.978L399.809 403.346Z" fill="#2A94F4"/>
<path d="M400.243 400.549L399.809 403.346C399.809 403.346 401.158 406.191 408.532 403.977L408.152 401.222L400.243 400.549Z" fill="#81807E"/>
<path d="M408.532 403.976C408.532 403.976 406.87 404.226 405.687 404.439C404.504 404.646 402.16 402.925 399.809 403.345L400.532 406.744C400.53 406.744 408.367 405.073 408.532 403.976Z" fill="#0B4870"/>
<path d="M446.919 402.786C446.919 402.786 449.541 404.917 450.991 406.406C452.445 407.895 454.419 409.525 455.629 413.327C456.853 417.179 456.635 423.476 453.36 423.706C450.083 423.934 443.35 417.59 442.861 414.176C442.376 410.793 438.53 411.189 438.026 408.787C437.525 406.379 438.193 403.417 438.193 403.417L446.919 402.786Z" fill="#2A94F4"/>
<path d="M446.477 399.993L446.913 402.787C446.913 402.787 445.562 405.631 438.188 403.418L438.568 400.663L446.477 399.993Z" fill="#81807E"/>
<path d="M450.011 336.358C450.011 342.509 449.238 400.495 449.238 400.495C448.698 402.544 438.612 403.217 436.812 402.192C435.012 401.168 435.328 343.664 434.995 337.466C434.663 331.269 430.288 285.669 428.711 285.877C427.134 286.08 418.213 329.034 416.953 333.745C415.693 338.457 410.735 401.863 410.735 401.863C404.58 404.301 398.288 402.159 398.288 402.159C398.288 402.159 400.641 337.944 400.642 330.317C400.644 327.483 401.376 325.345 402.081 310.298C402.618 298.831 405.421 275.327 407.296 259.159C407.363 258.586 407.426 258.033 407.491 257.502C407.857 254.355 408.131 252.043 408.264 250.937C408.322 250.455 408.355 250.2 408.355 250.2C408.857 249.933 409.389 249.691 409.939 249.463C423.116 244.075 448.536 249.78 448.536 249.78C448.536 249.78 448.551 249.923 448.578 250.191C448.613 250.516 448.666 251.025 448.735 251.683C448.879 253.108 449.099 255.232 449.35 257.699C449.354 257.717 449.354 257.736 449.355 257.752C449.362 257.823 449.37 257.902 449.378 257.977C450.265 266.744 450.704 271.561 451.402 280.92C451.555 282.972 450.011 330.215 450.011 336.358Z" fill="#D3D3D3"/>
<path d="M438.188 403.417C438.188 403.417 439.852 403.667 441.033 403.881C442.216 404.09 444.56 402.37 446.913 402.786L446.188 406.189C446.19 406.191 438.355 404.519 438.188 403.417Z" fill="#0B4870"/>
<path d="M330.152 153.734C330.152 153.734 329.583 139.241 342.238 138.73C354.891 138.228 358.298 150.092 357.261 158.734C356.226 167.382 350.987 171.94 350.987 171.94C350.987 171.94 351.439 164.945 348.984 163.127C346.529 161.31 336.687 157.69 332.397 149.264C332.399 149.265 330.408 151.924 330.152 153.734Z" fill="#0E538C"/>
<path d="M438.492 249.18C438.492 249.18 436.365 245.516 434.114 245.045C431.859 244.574 465.154 226.249 465.062 219.706C464.995 214.393 453.405 204.603 453.405 204.603C453.405 204.603 453.41 204.589 453.405 204.603C453.404 204.607 453.405 204.507 453.405 204.51C453.405 204.521 453.405 204.503 453.405 204.51C453.154 205.561 449.368 221.246 449.25 228.234C449.122 235.491 449.628 260.447 449.628 260.447L441.096 263.049L413.84 263.334L407.617 260.447C407.617 260.447 408.298 252.422 408.548 246.784C408.707 243.202 409.316 236.787 409.16 230.541C409.16 230.541 409.26 223.956 408.687 221.122C408.625 208.607 407.958 196.208 407.958 196.208C407.59 190.535 407.332 185.227 407.186 180.279C408.391 179.556 409.833 178.708 410.993 178.08C414.572 176.139 419.562 173.522 422.763 171.847C424.638 170.871 426.471 170.154 426.471 170.154C426.471 170.154 439.264 168.76 440.304 168.835C440.631 168.86 442.229 169.49 444.328 170.398C448.865 172.358 457.61 176.35 459.006 177.491C461.048 179.155 474.421 219.44 474.615 222.209C474.966 227.198 438.492 249.18 438.492 249.18Z" fill="#CCE9FF"/>
<path d="M406.888 179.425C407.032 184.457 407.247 189.856 407.622 195.637C407.622 195.637 407.978 209.752 408.691 223.145C408.931 225.063 409.055 227.023 408.92 229.026C408.742 231.646 408.492 234.504 408.192 237.491C408.188 237.527 408.184 237.565 408.181 237.602C408.109 238.312 408.034 239.02 407.959 239.74C407.959 239.751 407.955 239.762 407.955 239.773C406.364 254.692 403.667 271.809 402.258 276.984C401.96 278.067 402.986 279.065 403.718 279.837L408.84 283.512C408.84 283.512 410.949 261.381 411.649 253.869C412.327 246.619 414.455 236.901 415.388 227.429V227.426C416.568 215.409 415.221 204.685 416.101 197.693C418.386 179.483 424.407 170.29 424.407 170.29C422.954 170.779 406.888 179.425 406.888 179.425Z" fill="#0B4870"/>
<path d="M461.243 217.099C463.466 222.64 440.866 232.523 441.376 233.887C442.6 237.17 447.586 243.852 447.586 243.852C447.586 243.852 477.337 227.094 477.004 223.295C476.762 220.529 462.825 178.712 460.781 177.044C459.602 176.082 450.865 172.554 446.576 170.625C445.791 170.276 443.118 169.132 442.414 168.829C441.504 169.981 435.237 177.86 433.02 207.625C432.648 212.639 433.828 223.262 434.615 231.933C435.451 241.181 436.384 248.401 437.063 256.139C438.406 271.379 439.346 283.509 439.346 283.509L452.669 276.756C454.823 275.526 458.552 272.322 457.74 269.738C454.661 259.916 450.039 241.303 450.035 232.681C450.035 232.681 452.211 208.897 453.39 204.261C453.392 204.262 458.761 210.899 461.243 217.099Z" fill="#0B4870"/>
<path d="M439.121 169.62C439.121 169.62 439.209 164.617 440.9 154.503C441.353 151.795 427.09 161.627 427.09 161.627C427.09 161.627 427.135 162.577 427.166 163.862C427.182 164.535 427.19 165.305 427.186 166.072C427.185 166.345 427.182 166.617 427.177 166.88C427.162 167.597 427.135 168.285 427.079 168.865C427.026 169.467 426.714 170.525 426.605 170.817C426.018 172.361 434.318 173.534 439.121 169.62Z" fill="#FCD2B1"/>
<path opacity="0.9" d="M430.223 174.863C430.223 174.863 419.526 217.932 421.375 248.526L424.391 254.58L427.217 248.236C427.217 248.236 429.356 193.511 431.814 178.532L430.223 174.863Z" fill="#FFBE55"/>
<path d="M427.689 171.493L430.218 174.861C430.218 174.861 434.281 173.967 435.475 171.551C436.667 169.133 427.689 171.493 427.689 171.493Z" fill="#FCD2B1"/>
<path d="M427.11 168.542C427.11 168.542 427.405 171.111 430.22 174.861L427.147 179.568L425.482 169.806L427.11 168.542Z" fill="#0B4870"/>
<path d="M439.394 165.679C439.394 165.679 434.328 173.01 430.217 174.859L432.129 180.236L440.857 168.226L439.394 165.679Z" fill="#0B4870"/>
<path d="M447.586 243.852C447.586 243.852 443.253 239.803 440.905 233.888L454.205 225.598L459.14 237.039L447.586 243.852Z" fill="#0B4870"/>
<path d="M419.585 136.735C419.585 136.735 416.454 143.349 418.007 144.376C419.289 145.228 416.504 151.721 416.138 152.779C415.773 153.837 418.462 154.611 419.034 155.291C419.605 155.976 421.299 164.373 423.515 164.625C425.728 164.878 435.706 160.926 438.424 157.711C441.14 154.492 443.369 139.966 441.555 133.837C439.742 127.708 425.116 125.181 419.585 136.735Z" fill="#FCD2B1"/>
<path d="M418.959 138.168C418.959 138.168 412.592 130.833 418.081 127.337C433.744 117.358 438.09 129.729 439.299 130.081C440.505 130.437 447.353 130.972 443.898 144.667C440.927 156.427 440.51 156.92 440.51 156.92C440.51 156.92 438.294 150.11 437.039 149.069C435.076 147.446 430.776 147.839 430.776 147.839C430.776 147.839 432.826 141.644 429.622 140.765C426.424 139.889 422.201 136.8 418.959 138.168Z" fill="#0B4870"/>
<path d="M433.567 146.135C433.852 145.283 434.766 141.634 437.516 143.78C440.269 145.926 435.804 152.806 435.323 152.896C434.842 152.985 431.19 153.288 433.567 146.135Z" fill="#FCD2B1"/>
<path d="M427.19 166.073C427.189 166.346 427.185 166.618 427.181 166.881C435.338 163.763 436.919 159.077 436.919 159.077C434.375 161.126 427.169 163.863 427.169 163.863C427.185 164.536 427.193 165.306 427.19 166.073Z" fill="#997761"/>
<path opacity="0.9" d="M453.36 244.954L412.94 275.955L395.464 246.413L435.203 214.261L453.36 244.954Z" fill="#FFBE55"/>
<path d="M450.079 244.971L414.18 272.505L398.658 246.269L433.954 217.713L450.079 244.971Z" fill="#F7F7F7"/>
<path d="M444.385 237.533L446.904 235.602L440.629 224.999L437.864 226.514L444.385 237.533Z" fill="#0B4870"/>
<path d="M427.93 267.939C427.93 267.939 427.03 267.315 426.756 266.824C426.756 266.824 426.312 265.879 425.962 265.238C425.85 265.032 425.748 264.861 425.674 264.749C425.358 264.311 424.547 263.448 424.046 262.144C423.546 260.843 422.192 256.042 422.192 256.042L425.583 254L428.235 252.354C428.235 252.354 434.196 256.292 434.783 257.447C434.841 257.56 434.892 257.675 434.935 257.787C435.352 258.812 435.281 259.779 435.442 260.348C435.504 260.558 435.964 262.686 435.621 263.209C435.15 263.939 434.562 264.233 434.015 264.193C434.015 264.193 433.034 265.58 432.002 265.828C432.002 265.828 431.129 267.136 429.773 267.025C429.775 267.027 428.764 268.245 427.93 267.939Z" fill="#EEA886"/>
<path d="M422.679 258.956C422.679 258.956 399.169 240.601 396.054 234.726C394.61 232.007 395.858 224.802 396.571 218.532C396.805 216.468 397.105 214.366 397.435 212.314C397.432 212.31 397.437 212.306 397.437 212.306C398.746 204.128 400.517 196.872 400.517 196.872C400.517 196.872 402.026 175.383 413.541 178.162C413.541 178.162 416.59 181.493 417.337 184.376C418.105 187.338 414.19 199.975 413.465 202.181C412.749 204.387 406.996 225.955 407.159 226.772C407.323 227.592 413.626 235.211 416.634 238.618C422.233 244.959 429.94 253.746 429.94 253.746L422.679 258.956Z" fill="#0B4870"/>
</svg>
