<svg width="48" height="48" viewBox="0 0 48 48" fill="none" xmlns="http://www.w3.org/2000/svg">
<circle cx="24" cy="24" r="24" fill="#0B4870"/>
<path d="M28.36 26C28.44 25.34 28.5 24.68 28.5 24C28.5 23.32 28.44 22.66 28.36 22H31.74C31.9 22.64 32 23.31 32 24C32 24.69 31.9 25.36 31.74 26H28.36ZM26.59 31.56C27.19 30.45 27.65 29.25 27.97 28H30.92C29.9512 29.6683 28.4141 30.932 26.59 31.56ZM26.34 26H21.66C21.56 25.34 21.5 24.68 21.5 24C21.5 23.32 21.56 22.65 21.66 22H26.34C26.43 22.65 26.5 23.32 26.5 24C26.5 24.68 26.43 25.34 26.34 26ZM24 31.96C23.17 30.76 22.5 29.43 22.09 28H25.91C25.5 29.43 24.83 30.76 24 31.96ZM20 20H17.08C18.0389 18.3272 19.5748 17.0615 21.4 16.44C20.8 17.55 20.35 18.75 20 20ZM17.08 28H20C20.35 29.25 20.8 30.45 21.4 31.56C19.5786 30.9317 18.0448 29.6677 17.08 28ZM16.26 26C16.1 25.36 16 24.69 16 24C16 23.31 16.1 22.64 16.26 22H19.64C19.56 22.66 19.5 23.32 19.5 24C19.5 24.68 19.56 25.34 19.64 26H16.26ZM24 16.03C24.83 17.23 25.5 18.57 25.91 20H22.09C22.5 18.57 23.17 17.23 24 16.03ZM30.92 20H27.97C27.657 18.7615 27.1936 17.5659 26.59 16.44C28.43 17.07 29.96 18.34 30.92 20ZM24 14C18.47 14 14 18.5 14 24C14 26.6522 15.0536 29.1957 16.9289 31.0711C17.8575 31.9997 18.9599 32.7362 20.1732 33.2388C21.3864 33.7413 22.6868 34 24 34C26.6522 34 29.1957 32.9464 31.0711 31.0711C32.9464 29.1957 34 26.6522 34 24C34 22.6868 33.7413 21.3864 33.2388 20.1732C32.7362 18.9599 31.9997 17.8575 31.0711 16.9289C30.1425 16.0003 29.0401 15.2638 27.8268 14.7612C26.6136 14.2587 25.3132 14 24 14Z" fill="white"/>
</svg>
