<svg width="48" height="48" viewBox="0 0 48 48" fill="none" xmlns="http://www.w3.org/2000/svg">
<circle cx="24" cy="24" r="24" fill="#0B4870"/>
<path d="M29 35H19C18.4696 35 17.9609 34.7893 17.5858 34.4142C17.2107 34.0391 17 33.5304 17 33V14.913C17.0224 14.3978 17.243 13.9112 17.6157 13.5547C17.9883 13.1982 18.4843 12.9995 19 13H29C29.5304 13 30.0391 13.2107 30.4142 13.5858C30.7893 13.9609 31 14.4696 31 15V33C31 33.5304 30.7893 34.0391 30.4142 34.4142C30.0391 34.7893 29.5304 35 29 35ZM19 15V33H29V15H27C27 15.5304 26.7893 16.0391 26.4142 16.4142C26.0391 16.7893 25.5304 17 25 17H23C22.4696 17 21.9609 16.7893 21.5858 16.4142C21.2107 16.0391 21 15.5304 21 15H19Z" fill="white"/>
</svg>
