<svg width="30" height="30" viewBox="0 0 30 30" fill="none" xmlns="http://www.w3.org/2000/svg">
<path d="M12.8027 17.168C12.8027 18.2988 11.9824 18.6562 10.9746 18.6562H8.33203V15.5566H11.0273C12.1172 15.5625 12.8027 16.0137 12.8027 17.168ZM12.3516 12.3457C12.3516 11.3086 11.5488 11.0625 10.6582 11.0625H8.33789V13.6875H10.8398C11.7246 13.6875 12.3516 13.3008 12.3516 12.3457ZM20.1035 13.7051C19.0312 13.7051 18.3164 14.373 18.2461 15.4453H21.8906C21.791 14.3613 21.2285 13.7051 20.1035 13.7051ZM28.125 4.6875V25.3125C28.125 26.8652 26.8652 28.125 25.3125 28.125H4.6875C3.13477 28.125 1.875 26.8652 1.875 25.3125V4.6875C1.875 3.13477 3.13477 1.875 4.6875 1.875H25.3125C26.8652 1.875 28.125 3.13477 28.125 4.6875ZM17.7949 10.8398H22.3535V9.73242H17.7949V10.8398ZM15.2754 17.3027C15.2754 15.8906 14.6074 14.6719 13.2246 14.2793C14.2324 13.7988 14.7598 13.2422 14.7598 12.1113C14.7598 9.87305 13.0898 9.32812 11.1621 9.32812H5.85938V20.5781H11.3145C13.3594 20.5664 15.2754 19.5879 15.2754 17.3027ZM24.1406 16.4355C24.1406 14.0273 22.7285 12.0176 20.1797 12.0176C17.6953 12.0176 16.0137 13.8809 16.0137 16.3301C16.0137 18.8672 17.6133 20.6074 20.1797 20.6074C22.125 20.6074 23.3848 19.7344 23.9941 17.8652H22.0195C21.8027 18.5625 20.9297 18.9258 20.25 18.9258C18.9375 18.9258 18.252 18.1582 18.252 16.8574H24.123C24.1289 16.7227 24.1406 16.5762 24.1406 16.4355Z" fill="white"/>
</svg>
