<svg width="30" height="30" viewBox="0 0 30 30" fill="none" xmlns="http://www.w3.org/2000/svg">
<path d="M15.0059 8.26172C11.2793 8.26172 8.27344 11.2676 8.27344 14.9941C8.27344 18.7207 11.2793 21.7266 15.0059 21.7266C18.7324 21.7266 21.7383 18.7207 21.7383 14.9941C21.7383 11.2676 18.7324 8.26172 15.0059 8.26172ZM15.0059 19.3711C12.5977 19.3711 10.6289 17.4082 10.6289 14.9941C10.6289 12.5801 12.5918 10.6172 15.0059 10.6172C17.4199 10.6172 19.3828 12.5801 19.3828 14.9941C19.3828 17.4082 17.4141 19.3711 15.0059 19.3711ZM23.584 7.98633C23.584 8.85938 22.8809 9.55664 22.0137 9.55664C21.1406 9.55664 20.4434 8.85352 20.4434 7.98633C20.4434 7.11914 21.1465 6.41602 22.0137 6.41602C22.8809 6.41602 23.584 7.11914 23.584 7.98633ZM28.043 9.58008C27.9434 7.47656 27.4629 5.61328 25.9219 4.07813C24.3867 2.54297 22.5234 2.0625 20.4199 1.95703C18.252 1.83398 11.7539 1.83398 9.58594 1.95703C7.48828 2.05664 5.625 2.53711 4.08398 4.07227C2.54297 5.60742 2.06836 7.4707 1.96289 9.57422C1.83984 11.7422 1.83984 18.2402 1.96289 20.4082C2.0625 22.5117 2.54297 24.375 4.08398 25.9102C5.625 27.4453 7.48242 27.9258 9.58594 28.0313C11.7539 28.1543 18.252 28.1543 20.4199 28.0313C22.5234 27.9316 24.3867 27.4512 25.9219 25.9102C27.457 24.375 27.9375 22.5117 28.043 20.4082C28.166 18.2402 28.166 11.748 28.043 9.58008ZM25.2422 22.7344C24.7852 23.8828 23.9004 24.7676 22.7461 25.2305C21.0176 25.916 16.916 25.7578 15.0059 25.7578C13.0957 25.7578 8.98828 25.9102 7.26562 25.2305C6.11719 24.7734 5.23242 23.8887 4.76953 22.7344C4.08398 21.0059 4.24219 16.9043 4.24219 14.9941C4.24219 13.084 4.08984 8.97656 4.76953 7.25391C5.22656 6.10547 6.11133 5.2207 7.26562 4.75781C8.99414 4.07227 13.0957 4.23047 15.0059 4.23047C16.916 4.23047 21.0234 4.07812 22.7461 4.75781C23.8945 5.21484 24.7793 6.09961 25.2422 7.25391C25.9277 8.98242 25.7695 13.084 25.7695 14.9941C25.7695 16.9043 25.9277 21.0117 25.2422 22.7344Z" fill="white"/>
</svg>
