<svg width="30" height="30" viewBox="0 0 30 30" fill="none" xmlns="http://www.w3.org/2000/svg">
<path d="M25.3125 1.875H4.6875C3.13477 1.875 1.875 3.13477 1.875 4.6875V25.3125C1.875 26.8652 3.13477 28.125 4.6875 28.125H25.3125C26.8652 28.125 28.125 26.8652 28.125 25.3125V4.6875C28.125 3.13477 26.8652 1.875 25.3125 1.875ZM22.4473 11.1797C22.459 11.3438 22.459 11.5137 22.459 11.6777C22.459 16.7578 18.5918 22.6113 11.5254 22.6113C9.3457 22.6113 7.32422 21.9785 5.625 20.8887C5.93555 20.9238 6.23438 20.9355 6.55078 20.9355C8.34961 20.9355 10.002 20.3262 11.3203 19.2949C9.63281 19.2598 8.21484 18.1523 7.72852 16.6289C8.32031 16.7168 8.85352 16.7168 9.46289 16.5586C7.70508 16.2012 6.38672 14.6543 6.38672 12.7852V12.7383C6.89648 13.0254 7.49414 13.2012 8.12109 13.2246C7.594 12.874 7.1619 12.3984 6.86336 11.8401C6.56482 11.2819 6.40912 10.6584 6.41016 10.0254C6.41016 9.31055 6.59766 8.6543 6.93164 8.08594C8.82422 10.418 11.666 11.9414 14.8535 12.1055C14.3086 9.49805 16.2598 7.38281 18.6035 7.38281C19.7109 7.38281 20.707 7.8457 21.4102 8.5957C22.2773 8.43164 23.1094 8.10937 23.8477 7.66992C23.5605 8.56055 22.957 9.31055 22.1602 9.78516C22.9336 9.70312 23.6836 9.48633 24.375 9.1875C23.8535 9.95508 23.1973 10.6348 22.4473 11.1797Z" fill="white"/>
</svg>
